<?xml version="1.0" standalone="no"?>
<!DOCTYPE svg PUBLIC "-//W3C//DTD SVG 20010904//EN"
 "http://www.w3.org/TR/2001/REC-SVG-20010904/DTD/svg10.dtd">
<svg version="1.0" xmlns="http://www.w3.org/2000/svg"
 width="536.000000pt" height="536.000000pt" viewBox="0 0 536.000000 536.000000"
 preserveAspectRatio="xMidYMid meet">
<metadata>
Created by potrace 1.11, written by Peter Selinger 2001-2013
</metadata>
<g transform="translate(0.000000,536.000000) scale(0.100000,-0.100000)"
fill="#000000" stroke="none">
<path d="M469 5333 c-11 -29 -31 -82 -144 -368 -37 -93 -77 -197 -90 -230 -13
-33 -44 -113 -69 -178 l-46 -117 0 -1880 0 -1880 88 0 c169 0 208 0 287 0 44
0 134 0 200 1 66 0 125 0 130 0 24 1 402 0 420 0 34 -1 116 -1 123 0 30 5 32
-4 33 -119 0 -64 0 -124 0 -132 0 -8 0 -58 0 -110 -1 -52 -1 -146 -1 -207 l0
-113 360 0 360 0 340 340 341 341 172 -1 c177 0 195 0 527 1 173 0 260 0 279
-3 52 -6 62 3 621 562 l560 560 59 -60 c58 -58 70 -64 118 -62 25 1 54 25 71
58 22 42 -7 110 -70 163 -15 13 -28 30 -28 38 0 8 29 43 65 78 l65 65 0 1640
0 1640 -2380 0 -2380 0 -11 -27z m791 -452 c25 0 50 1 55 0 16 0 209 0 225 0
8 1 56 1 105 0 50 0 97 0 105 0 8 1 35 0 60 -1 38 -1 85 -2 275 -1 11 0 85 0
165 0 140 0 156 0 183 2 6 1 68 1 137 0 69 0 132 0 140 0 8 0 69 0 135 0 213
-2 289 -2 335 0 25 0 50 1 55 0 16 0 209 0 225 0 8 1 56 1 105 0 50 0 97 0
105 0 8 1 35 0 60 -1 38 -1 85 -2 275 -1 11 0 85 0 165 0 140 0 156 0 183 2 6
1 68 1 137 0 69 0 132 0 140 0 8 1 29 0 45 -1 17 -2 35 -2 40 0 42 11 43 5 45
-137 2 -168 2 -154 0 -178 -1 -11 -1 -65 -1 -120 0 -55 0 -107 0 -115 -1 -8 0
-31 0 -50 2 -38 3 -306 2 -330 -1 -23 -1 -89 0 -97 1 -5 1 -37 0 -73 l-2 -65
-16 35 c-53 120 -109 215 -178 300 -47 58 -177 181 -231 217 -63 43 -208 124
-221 125 -4 0 -23 6 -42 14 -18 8 -41 14 -51 14 -9 0 -20 3 -24 7 -3 4 -12 8
-19 9 -7 1 -41 7 -77 14 -136 26 -336 18 -458 -19 -18 -5 -35 -10 -37 -10 -17
1 -158 -59 -209 -88 -204 -116 -358 -276 -467 -487 l-47 -89 -1 99 c-1 54 -3
99 -4 101 -3 2 -128 3 -318 2 -53 0 -100 1 -105 2 -5 1 -19 1 -32 0 -20 -1
-22 -6 -22 -48 0 -27 0 -75 0 -108 -1 -33 0 -103 0 -155 1 -73 2 -603 1 -655
0 -5 0 -19 -1 -30 -1 -11 -1 -65 -1 -120 0 -55 0 -107 0 -115 0 -8 0 -50 1
-92 l1 -77 37 -3 c20 -2 57 -1 82 2 25 3 58 3 74 0 16 -3 55 -3 85 0 31 3 89
3 129 0 l72 -5 1 45 c0 25 0 78 -1 119 l-1 75 44 -87 c51 -99 147 -236 194
-278 18 -15 33 -33 33 -39 0 -5 4 -10 8 -10 5 0 24 -14 43 -31 62 -57 153
-117 239 -159 47 -23 93 -46 102 -51 10 -5 28 -9 41 -9 13 0 27 -4 33 -8 9 -9
84 -26 158 -38 80 -12 263 -6 336 11 92 21 120 29 147 41 17 8 35 14 40 14 35
0 277 145 318 190 18 20 19 19 57 -23 21 -23 61 -65 89 -94 l51 -51 -327 -327
-326 -326 -105 2 c-58 1 -107 0 -109 -3 -2 -2 -33 -1 -69 2 -36 3 -72 3 -80 0
-9 -3 -50 -3 -92 0 -42 3 -77 3 -79 0 -2 -3 -33 -3 -69 0 -36 3 -72 3 -80 0
-9 -3 -50 -3 -92 0 -42 3 -78 2 -81 -3 -2 -4 -8 -5 -12 -3 -7 5 -107 7 -151 5
-8 -1 -46 -1 -85 0 -38 0 -93 1 -122 1 l-52 1 -338 -337 -338 -338 -5 70 c-3
38 -3 92 0 119 3 28 3 82 0 120 -3 39 -3 95 0 125 3 30 3 83 0 118 -3 35 -3
68 1 74 4 5 4 18 2 29 -4 16 -15 18 -84 16 -43 -1 -79 1 -79 5 0 3 -8 4 -17 2
-30 -7 -223 -9 -223 -2 0 3 -8 4 -17 2 -26 -7 -223 -10 -223 -4 0 3 -25 5 -55
5 -30 0 -55 -3 -55 -6 0 -3 -22 -3 -50 1 -27 3 -54 4 -60 0 -6 -4 -33 -4 -60
0 -27 4 -54 4 -59 1 -5 -4 -30 -5 -55 -3 l-45 4 0 1678 0 1678 65 0 c36 0 67
1 69 3 2 2 39 3 82 1 43 -1 98 -2 123 -1z m2570 -626 c127 -16 261 -68 385
-150 59 -40 225 -199 225 -217 0 -5 8 -18 19 -29 10 -11 37 -55 59 -98 58
-111 90 -207 110 -326 14 -85 5 -357 -13 -385 -2 -4 -7 -22 -10 -40 -15 -88
-109 -277 -181 -367 -115 -142 -274 -256 -434 -309 -30 -10 -57 -19 -60 -19
-3 -1 -25 -5 -50 -9 -25 -5 -54 -10 -65 -12 -29 -6 -214 -6 -223 0 -4 2 -28 7
-52 11 -104 15 -252 81 -355 157 -83 62 -195 176 -195 198 0 5 -4 10 -8 10 -9
0 -77 113 -105 175 -25 54 -56 149 -68 210 -6 28 -13 61 -15 75 -8 39 -9 219
-1 278 27 202 118 406 239 537 15 17 38 41 50 55 33 36 142 120 156 120 7 0
12 4 12 9 0 5 16 15 35 22 19 7 35 17 35 21 0 4 5 8 11 8 5 0 31 9 56 21 25
11 54 22 65 24 11 2 28 7 38 10 29 9 61 15 120 21 30 4 56 8 58 9 4 4 98 -3
162 -10z m929 -1515 c0 -47 0 -92 0 -100 0 -14 0 -149 1 -275 l1 -60 -44 45
c-24 25 -66 70 -95 101 l-52 56 33 44 c18 24 42 60 53 79 10 19 24 38 29 42 6
4 6 8 1 8 -5 0 -2 8 6 18 8 9 25 43 38 74 13 32 25 57 26 55 2 -2 3 -41 3 -87z"/>
<path d="M3569 3965 c-3 -2 -24 -5 -47 -6 l-42 -3 0 -45 c0 -26 0 -156 0 -291
1 -135 1 -281 0 -325 -1 -112 -1 -175 0 -290 0 -55 0 -128 0 -162 0 -35 0
-112 1 -173 l0 -110 77 -1 c42 -1 80 -1 84 0 14 2 240 4 301 3 13 -1 17 7 17
31 2 196 0 1361 -3 1363 -2 2 -68 4 -148 3 -180 0 -221 1 -229 6 -4 3 -9 3
-11 0z"/>
</g>
</svg>
